<svg width="27" height="26" viewBox="0 0 27 26" fill="#858585" xmlns="http://www.w3.org/2000/svg">
<path d="M26.5887 23.6819L20.1793 17.246C21.8272 15.3546 22.7302 12.9749 22.7302 10.4975C22.7302 4.70927 17.8524 0 11.8571 0C5.86177 0 0.984009 4.70927 0.984009 10.4975C0.984009 16.2857 5.86177 20.995 11.8571 20.995C14.1078 20.995 16.2526 20.3396 18.0864 19.0954L24.5446 25.5801C24.8145 25.8508 25.1776 26 25.5666 26C25.9349 26 26.2842 25.8644 26.5495 25.618C27.113 25.0945 27.1309 24.2264 26.5887 23.6819ZM11.8571 2.73848C16.2886 2.73848 19.8937 6.21908 19.8937 10.4975C19.8937 14.7759 16.2886 18.2565 11.8571 18.2565C7.4256 18.2565 3.82046 14.7759 3.82046 10.4975C3.82046 6.21908 7.4256 2.73848 11.8571 2.73848Z" />
</svg>
