<svg width="26" height="26" viewBox="0 0 90 89" fill="none" xmlns="http://www.w3.org/2000/svg">
<path d="M87.8282 50.7957C86.9159 50.5676 86.0035 50.7957 85.2052 51.3659C82.2401 53.8748 78.8188 55.9276 75.0554 57.2961C71.5201 58.6646 67.6426 59.3489 63.5371 59.3489C54.2996 59.3489 45.8604 55.5855 39.8161 49.5412C33.7719 43.4969 30.0085 35.0577 30.0085 25.8203C30.0085 21.9428 30.6927 18.1794 31.8331 14.7581C33.0876 11.1087 34.9123 7.80149 37.3072 4.95042C38.3336 3.69595 38.1055 1.87126 36.851 0.844874C36.0527 0.274659 35.1404 0.0465733 34.228 0.274659C24.5344 2.89765 16.0952 8.71383 10.051 16.4687C4.23476 24.1096 0.813477 33.5752 0.813477 43.839C0.813477 56.2697 5.83136 67.56 14.0425 75.7711C22.2535 83.9821 33.4297 89 45.9745 89C56.4664 89 66.1601 85.3507 73.915 79.3064C81.7839 73.1481 87.4861 64.3668 89.881 54.331C90.3371 52.7344 89.4248 51.1378 87.8282 50.7957Z" fill="#111517"/>
</svg>
