<svg class="spinner" width="538" height="538" viewBox="0 0 538 538" fill="none" xmlns="http://www.w3.org/2000/svg">
<path className="stroke" d="M472.36 160.592C467.706 162.845 465.759 168.443 468.01 173.096C482.555 203.153 489.93 235.418 489.93 269C489.93 390.821 390.821 489.93 269 489.93C221.248 489.93 174.507 474.241 136.402 445.594C141.379 435.156 139.557 422.259 130.925 413.628C119.974 402.679 102.158 402.679 91.2067 413.628C80.2566 424.578 80.2566 442.395 91.2067 453.346C99.6779 461.817 112.44 463.849 122.993 458.912C164.717 491.028 216.289 508.653 269 508.653C401.145 508.653 508.653 401.145 508.653 269C508.653 232.571 500.649 197.561 484.864 164.942C482.612 160.288 477.015 158.341 472.36 160.592Z" fill="black"/>
<path className= "stroke" d="M63.282 372.88C67.9852 370.733 70.0559 365.179 67.9075 360.477C54.7434 331.659 48.0696 300.881 48.0696 269C48.0696 147.178 147.178 48.0696 269 48.0696C316.002 48.0696 360.475 62.5115 398.257 89.9275C391.69 100.733 393.064 115.043 402.393 124.373C413.344 135.323 431.16 135.323 442.111 124.373C453.061 113.423 453.061 95.6062 442.111 84.6551C434.363 76.9066 423.178 74.6496 413.418 77.8662C371.849 46.3724 321.485 29.3467 269 29.3467C136.855 29.3467 29.3467 136.855 29.3467 269C29.3467 303.585 36.5906 336.979 50.8771 368.255C53.0143 372.935 58.5563 375.039 63.282 372.88V372.88Z" fill="black"/>
<path id="globe" d="M269 91.1323C177.439 91.1323 91.1318 163.858 91.1318 269C91.1318 366.388 170.235 446.868 269 446.868C367.744 446.868 446.867 366.437 446.867 269C446.867 171.612 367.764 91.1323 269 91.1323ZM218.893 117.944C199.548 140.94 187.84 173.761 181.782 203.47H123.979C142.204 163.299 176.645 131.994 218.893 117.944ZM109.855 269C109.855 252.717 112.318 236.998 116.883 222.193L178.574 222.183C176.472 237.252 175.385 252.973 175.385 269C175.385 285.027 176.472 300.739 178.574 315.807H116.883C112.318 301.002 109.855 285.283 109.855 269V269ZM123.98 334.53H181.783C187.839 364.232 199.546 397.057 218.894 420.057C176.645 406.006 142.204 374.701 123.98 334.53ZM259.638 426.845C233.875 419.662 211.733 383.362 201.007 334.53H259.638V426.845ZM259.638 315.807H197.554C195.318 300.94 194.108 285.207 194.108 269C194.108 252.794 195.319 237.06 197.554 222.193H259.638V315.807ZM259.638 203.47H201.007C211.733 154.637 233.875 118.338 259.638 111.156V203.47ZM278.361 111.156C304.124 118.338 326.266 154.638 336.992 203.47H278.361V111.156ZM278.361 222.193H340.445C342.681 237.06 343.891 252.794 343.891 269C343.891 285.207 342.68 300.94 340.445 315.807H278.361V222.193ZM278.361 426.845V334.521L336.992 334.53C326.266 383.363 304.124 419.662 278.361 426.845ZM319.106 420.057C338.46 397.051 350.163 364.22 356.218 334.521H414.02C395.795 374.701 361.354 406.006 319.106 420.057ZM428.144 269C428.144 285.283 425.681 301.002 421.116 315.807H359.425C361.527 300.739 362.614 285.027 362.614 269C362.614 252.973 361.527 237.261 359.425 222.193H421.116C425.681 236.998 428.144 252.717 428.144 269ZM356.217 203.47C350.16 173.768 338.453 140.943 319.105 117.944C361.353 131.994 395.795 163.299 414.018 203.47H356.217Z" fill="black"/>
</svg>
